<svg width="28" height="28" viewBox="0 0 28 28" fill="none" xmlns="http://www.w3.org/2000/svg">
<path d="M23.333 14.3203C23.333 14.7632 23.0038 15.1293 22.5767 15.1873L22.458 15.1953L4.95801 15.1953C4.47476 15.1953 4.08301 14.8035 4.08301 14.3203C4.08301 13.8773 4.41219 13.5112 4.83928 13.4532L4.95801 13.4453L22.458 13.4453C22.9413 13.4453 23.333 13.837 23.333 14.3203Z" fill="#212121"/>
<path d="M12.6335 20.7285C12.9759 21.0695 12.9771 21.6235 12.6362 21.9659C12.3262 22.2772 11.8401 22.3065 11.497 22.0531L11.3987 21.9686L4.34039 14.9406C4.02815 14.6297 3.99975 14.1419 4.25519 13.7988L4.34034 13.7006L11.3987 6.67138C11.7411 6.33038 12.2951 6.33153 12.6361 6.67395C12.9461 6.98523 12.9733 7.4714 12.7185 7.81342L12.6335 7.91138L6.19818 14.3209L12.6335 20.7285Z" fill="#212121"/>
</svg>
