<svg width="1024" height="1024" viewBox="0 0 1024 1024" fill="none" xmlns="http://www.w3.org/2000/svg">
<mask id="mask0_14_8" style="mask-type:luminance" maskUnits="userSpaceOnUse" x="0" y="0" width="1024" height="1024">
<path d="M1024 0H0V1024H1024V0Z" fill="white"/>
</mask>
<g mask="url(#mask0_14_8)">
<path d="M715.648 0.512449C713.472 -1.91955 635.072 1.47245 566.848 75.5204C498.624 149.504 509.12 234.368 510.656 236.544C512.192 238.72 607.936 242.112 669.056 156.032C730.176 69.9524 717.824 3.00845 715.648 0.512449ZM927.744 751.424C924.672 745.28 778.944 672.448 792.512 532.416C806.08 392.32 899.712 353.92 901.184 349.76C902.656 345.6 862.976 299.2 820.928 275.712C790.055 259.153 755.887 249.665 720.896 247.936C713.984 247.744 689.984 241.856 640.64 255.36C608.128 264.256 534.848 293.056 514.688 294.208C494.464 295.36 434.304 260.8 369.601 251.648C328.193 243.648 284.289 260.032 252.865 272.64C221.505 285.184 161.857 320.896 120.129 415.808C78.4006 510.656 100.225 660.928 115.841 707.648C131.457 754.304 155.841 830.784 197.313 886.592C234.177 949.568 283.073 993.28 303.489 1008.13C323.905 1022.98 381.505 1032.83 421.44 1012.42C453.568 992.704 511.552 981.376 534.464 982.208C557.312 983.04 602.368 992.064 648.512 1016.7C685.056 1029.31 719.616 1024.06 754.24 1009.98C788.864 995.84 838.976 942.208 897.472 833.472C919.68 782.912 929.792 755.584 927.744 751.424Z" fill="black"/>
<path d="M715.648 0.512449C713.472 -1.91955 635.072 1.47245 566.848 75.5204C498.624 149.504 509.12 234.368 510.656 236.544C512.192 238.72 607.936 242.112 669.056 156.032C730.176 69.9524 717.824 3.00845 715.648 0.512449ZM927.744 751.424C924.672 745.28 778.944 672.448 792.512 532.416C806.08 392.32 899.712 353.92 901.184 349.76C902.656 345.6 862.976 299.2 820.928 275.712C790.055 259.153 755.887 249.665 720.896 247.936C713.984 247.744 689.984 241.856 640.64 255.36C608.128 264.256 534.848 293.056 514.688 294.208C494.464 295.36 434.304 260.8 369.601 251.648C328.193 243.648 284.289 260.032 252.865 272.64C221.505 285.184 161.857 320.896 120.129 415.808C78.4006 510.656 100.225 660.928 115.841 707.648C131.457 754.304 155.841 830.784 197.313 886.592C234.177 949.568 283.073 993.28 303.489 1008.13C323.905 1022.98 381.505 1032.83 421.44 1012.42C453.568 992.704 511.552 981.376 534.464 982.208C557.312 983.04 602.368 992.064 648.512 1016.7C685.056 1029.31 719.616 1024.06 754.24 1009.98C788.864 995.84 838.976 942.208 897.472 833.472C919.68 782.912 929.792 755.584 927.744 751.424Z" fill="black"/>
</g>
</svg>
